Coordinates
version=1
nRows=19
nColumns=36
inDegrees=yes

Units are S.I. units (second, meters, Newtons, ...)
If the header above contains a line with 'inDegrees', this indicates whether rotational values are in degrees (yes) or radians (no).

endheader
time	pelvis_tilt	pelvis_list	pelvis_rotation	pelvis_tx	pelvis_ty	pelvis_tz	hip_flexion_r	hip_adduction_r	hip_rotation_r	knee_angle_r	knee_angle_r_beta	ankle_angle_r	subtalar_angle_r	mtp_angle_r	hip_flexion_l	hip_adduction_l	hip_rotation_l	knee_angle_l	knee_angle_l_beta	ankle_angle_l	subtalar_angle_l	mtp_angle_l	lumbar_extension	lumbar_bending	lumbar_rotation	arm_flex_r	arm_add_r	arm_rot_r	elbow_flex_r	pro_sup_r	arm_flex_l	arm_add_l	arm_rot_l	elbow_flex_l	pro_sup_l
      3.90000000	      2.27765066	      5.35174489	     -6.80865828	      0.28595001	      0.87290768	     -0.10490528	     53.73779143	     -5.09281881	     12.82727222	     22.15270237	      0.38663759	    -10.10397369	     -1.94518780	     -7.49999987	     25.59010198	     10.63369471	     -5.32719002	     52.71781263	      0.92009940	     29.92673634	     -0.03701023	     -7.49999987	     -9.45028868	    -17.36806517	      3.67034549	     41.28007363	     12.88326145	     62.17613780	    111.79307513	     84.83022533	     44.00867367	     -5.48415462	     65.47899807	    118.44957478	     68.67982149
      3.91666670	      2.50726532	      4.55442831	     -6.89748299	      0.28724984	      0.88555594	     -0.10547913	     52.13449082	     -4.65721261	     12.09256958	     20.89632325	      0.36470964	     -9.70760485	     -1.20862653	     -7.49999987	     23.50930223	      9.83709254	     -4.83862619	     50.32622613	      0.87835835	     29.49276284	      0.35193074	     -7.49999987	     -9.25416409	    -16.59633771	      4.19854578	     40.59733144	     12.94093673	     62.51775124	    110.99044131	     84.45314873	     43.39927229	     -5.18758005	     63.54017318	    115.59588131	     68.48434105
      3.93333330	      2.46739405	      3.52858620	     -7.08462897	      0.28744996	      0.89002280	     -0.10593578	     51.00119941	     -3.81884007	     11.46364925	     19.93565709	      0.34794285	     -9.45231934	     -0.97822466	     -7.49999987	     22.03836247	      8.64668428	     -4.64212489	     48.41488980	      0.84499923	     29.04071589	      0.66971995	     -7.49999987	     -8.52324931	    -15.57062809	      4.77888098	     40.04542348	     12.81575691	     62.83874609	    110.66533217	     84.75462404	     43.00363024	     -4.99710916	     62.81182572	    113.41633774	     68.49048746
      3.95000000	      2.87921513	      2.83049683	     -7.01302902	      0.28180947	      0.90466062	     -0.11254976	     49.60262887	     -3.51351991	     10.57947161	     18.96573895	      0.33101459	     -9.26504433	     -0.48481818	     -7.49999987	     20.09244759	      8.09246303	     -4.23353983	     46.15302684	      0.80552228	     28.08229266	      0.48225899	     -7.49999987	     -9.11154202	    -14.85316759	      5.02336013	     40.93710132	     11.65638710	     63.43051212	    111.34903987	     84.70707221	     43.85440544	     -4.03344614	     65.45728613	    113.36533533	     68.43806551
      3.96666670	      3.34498059	      1.94894979	     -6.87963421	      0.28229564	      0.91292874	     -0.10526241	     47.96797075	     -3.02078466	      9.47686117	     17.64793907	      0.30801464	     -9.09281149	     -0.04015650	     -7.49999987	     18.03763737	      7.26020305	     -3.90710880	     43.84084592	      0.76516711	     26.94450545	      0.42188493	     -7.49999987	     -9.62219998	    -14.03904928	      5.34008997	     41.35400847	     11.53155787	     62.66179928	    111.75816149	     85.09111331	     43.93627544	     -3.84512046	     66.84648465	    113.61775132	     68.58093711
      3.98333330	      3.63626288	      1.10810768	     -6.85915015	      0.28447512	      0.92727690	     -0.10643559	     46.51840596	     -2.43829449	      8.36638878	     16.48148484	      0.28765618	     -8.97462626	      0.42352326	     -7.49999987	     16.12000381	      6.43723780	     -3.56032823	     41.43055158	      0.72309954	     25.58631112	      0.17118047	     -7.49999987	     -9.84214666	    -13.25670917	      5.32076833	     40.95058520	     11.51371862	     62.05681793	    112.36751563	     85.13821195	     44.07159863	     -4.17745440	     68.26294143	    115.60910314	     68.57791726
      4.00000000	      3.91760582	      0.19329123	     -6.81640616	      0.28616870	      0.93446748	     -0.10787914	     45.05638207	     -1.80698395	      7.25393045	     15.42416074	      0.26920239	     -8.88609340	      0.63723648	     -7.49999987	     14.23978974	      5.53170915	     -3.24575783	     39.10852069	      0.68257245	     24.29299244	     -0.02151115	     -7.49999987	    -10.15272455	    -12.24412310	      5.44899022	     41.25650881	     11.10079616	     62.02720255	    113.42518995	     85.70722257	     44.12222588	     -3.50414566	     69.04674009	    117.20845315	     68.35390026
      4.01666670	      3.87842013	     -0.55433837	     -6.69369390	      0.28785679	      0.94135178	     -0.10825333	     44.12736578	     -1.28325638	      6.17417823	     14.52673066	      0.25353928	     -8.74256864	      0.72561237	     -7.49999987	     12.82506902	      4.73595182	     -3.03971440	     36.95288670	      0.64494954	     23.03799174	     -0.17320254	     -7.49999987	     -9.91570878	    -11.36072471	      5.51198600	     40.99750104	     10.68482436	     61.78824386	    113.03164473	     85.78203930	     43.73430745	     -3.13629986	     68.71453016	    116.42358902	     68.22388359
      4.03333330	      3.91861363	     -1.39902147	     -6.59341828	      0.28817650	      0.94159578	     -0.10949041	     43.58958888	     -0.69219393	      5.10973483	     14.44304344	      0.25207866	     -8.37038011	      0.48024470	     -7.49999987	     11.87050680	      3.80950008	     -2.99932736	     35.59038091	      0.62116933	     22.10507366	     -0.30549765	     -7.49999987	     -9.79552077	    -10.37762575	      5.23000426	     40.85896898	     10.59484177	     62.06304917	    113.25876821	     84.78075965	     43.80639856	     -2.71887865	     67.82995344	    114.66176023	     67.67707435
      4.05000000	      3.73604638	     -2.22637132	     -6.58816432	      0.28981044	      0.94467522	     -0.11031443	     43.49858756	     -0.02516029	      4.27092504	     14.63534537	      0.25543496	     -8.01638495	     -0.01429733	     -7.49999987	     11.40406866	      2.81301903	     -3.10376210	     34.70576132	      0.60572980	     21.37757170	     -0.47041492	     -7.49999987	     -9.44791502	     -9.39536841	      4.97089845	     40.85412521	     10.58104554	     62.93421771	    113.44674405	     83.80875443	     44.01661131	     -2.42240053	     67.95225707	    113.50118401	     67.19962517
      4.06666670	      3.43972176	     -3.01998182	     -6.72472197	      0.28987558	      0.94809939	     -0.11123307	     43.74526969	      0.69219950	      3.61477344	     14.94729263	      0.26087947	     -7.56270757	     -0.43132295	     -7.49999987	     11.29739399	      1.84496399	     -3.33069349	     34.12704516	      0.59562930	     20.89024045	     -0.47318286	     -7.49999987	     -9.02755419	     -8.45682404	      4.78874324	     40.92183223	     10.54356601	     64.17660860	    113.63687194	     82.46116691	     43.96426969	     -2.10856002	     68.08952683	    111.88099815	     66.71809416
      4.08333330	      3.34745681	     -3.65329189	     -6.84654245	      0.28388537	      0.94707408	     -0.11804253	     44.25686354	      1.23669649	      3.06135764	     15.85050115	      0.27664343	     -7.14235124	     -0.95548605	     -7.49999987	     11.36742519	      1.08095179	     -3.69802250	     34.02207062	      0.59379715	     20.55133286	     -0.49864741	     -7.49999987	     -9.02659909	     -7.64458278	      4.43112186	     41.81574871	     10.16184194	     63.98543521	    114.01928952	     82.49510634	     44.32055025	     -1.96140729	     68.00145936	    111.26649731	     66.69989227
      4.10000000	      3.00037245	     -4.33143217	     -6.99168776	      0.28385654	      0.94684200	     -0.11896366	     45.15431823	      1.82944079	      2.58623408	     16.91725766	      0.29526185	     -6.64522356	     -1.46583084	     -7.49999987	     11.97399148	      0.28227936	     -3.98231400	     34.36828407	      0.59983972	     20.48272228	     -0.64828821	     -7.49999987	     -8.55112167	     -6.76498567	      4.32819763	     42.49237904	      9.16323590	     63.47255546	    114.63965741	     81.40443274	     44.60122053	     -1.72776343	     67.81264416	    111.10150831	     66.37472761
      4.11666670	      2.96850833	     -4.82022120	     -7.06738477	      0.28463260	      0.95024817	     -0.11945293	     45.74473688	      2.19416801	      2.08849003	     18.00030839	      0.31416465	     -6.30248477	     -2.00732682	     -7.49999987	     12.15292817	     -0.21535145	     -4.14511812	     34.50740258	      0.60226779	     20.64700381	     -0.65044294	     -7.49999987	     -8.52567280	     -6.12164341	      3.94519576	     42.56869627	      8.75454221	     63.43114854	    115.67213809	     81.56572844	     44.76885501	     -1.61032767	     67.61431204	    110.78803277	     66.47458036
      4.13333330	      2.71524085	     -5.19493322	     -7.25967880	      0.28404418	      0.94660059	     -0.11970365	     46.59673300	      2.58177870	      1.85576303	     18.99687687	      0.33155805	     -6.05319514	     -2.39805638	     -7.49999987	     12.50604105	     -0.71536111	     -4.51100210	     34.64270199	      0.60462921	     20.58864184	     -0.74177725	     -7.49999987	     -8.07120594	     -5.59452255	      3.65047053	     42.76428430	      8.85869572	     63.56535801	    116.67091234	     80.90582472	     44.79323840	     -1.74026251	     67.43923023	    111.24887672	     66.45129969
      4.15000000	      2.59822572	     -5.56881819	     -7.46083908	      0.28477442	      0.94998710	     -0.11987004	     47.09948948	      2.95254749	      1.55251870	     19.67899941	      0.34346333	     -5.96043312	     -2.67808695	     -7.49999987	     12.64454145	     -1.17864401	     -4.79801742	     34.67954408	      0.60527223	     20.71018106	     -0.68525794	     -7.49999987	     -7.90090140	     -5.08626869	      3.51594257	     42.92003777	      8.93295499	     64.16844259	    117.31677488	     81.18521563	     44.50950237	     -1.84820905	     67.18485523	    111.85498151	     66.64168638
      4.16666670	      2.33274280	     -6.05384844	     -7.63873437	      0.29095103	      0.95062845	     -0.11380634	     47.37311044	      3.57226241	      1.47416020	     20.02332891	      0.34947302	     -5.32576781	     -2.87035863	     -7.49999987	     12.46781342	     -1.82073718	     -5.04549922	     34.23898835	      0.59758308	     20.95079060	     -0.68128490	     -7.49999987	     -7.59973261	     -4.45501253	      3.62887773	     42.52105119	      9.09914443	     64.76631471	    117.52912747	     81.34965110	     44.03188053	     -2.03856375	     67.32400129	    112.54937847	     66.76238618
      4.18333330	      1.86173845	     -6.43951508	     -7.76408106	      0.29077497	      0.94685562	     -0.11341922	     48.04393553	      4.09506711	      1.35996301	     20.71043349	      0.36146525	     -4.90241106	     -3.19065415	     -7.49999987	     12.61729423	     -2.41773402	     -5.22329632	     33.93486307	      0.59227509	     21.29880486	     -0.42272624	     -7.49999987	     -6.94709052	     -3.90269358	      3.52413348	     42.55538135	      9.47185934	     65.25758396	    118.01337345	     80.67511001	     43.41199919	     -2.28552514	     67.26757349	    114.19061389	     66.74769695
      4.20000000	      1.51351948	     -6.87819481	     -7.90342167	      0.29101186	      0.95017090	     -0.11411429	     48.57533278	      4.61403504	      1.14493154	     21.37180333	      0.37300834	     -4.42375261	     -3.38476009	     -7.49999987	     12.65359496	     -3.03230922	     -5.36877472	     33.64522558	      0.58721996	     21.26056796	     -0.49603943	     -7.49999987	     -6.50737918	     -3.29103420	      3.56112051	     41.68461430	      9.45755029	     65.30387209	    117.54376187	     79.92832927	     42.57803842	     -2.57151520	     67.28968509	    114.33014713	     66.56343798
